<?xml version="1.0" encoding="UTF-8" standalone="no"?>
<!-- Generator: Adobe Illustrator 27.5.0, SVG Export Plug-In . SVG Version: 6.00 Build 0)  -->

<svg
   version="1.1"
   id="Capa_2_00000174583160797886262930000000574717726575293078_"
   x="0px"
   y="0px"
   viewBox="0 0 1893.5538 1123.7651"
   xml:space="preserve"
   sodipodi:docname="meteor.svg"
   width="1893.5538"
   height="1123.7651"
   inkscape:version="1.4.2 (ebf0e940d0, 2025-05-08)"
   xmlns:inkscape="http://www.inkscape.org/namespaces/inkscape"
   xmlns:sodipodi="http://sodipodi.sourceforge.net/DTD/sodipodi-0.dtd"
   xmlns="http://www.w3.org/2000/svg"
   xmlns:svg="http://www.w3.org/2000/svg"><defs
   id="defs50" /><sodipodi:namedview
   id="namedview50"
   pagecolor="#ffffff"
   bordercolor="#000000"
   borderopacity="0.25"
   inkscape:showpageshadow="2"
   inkscape:pageopacity="0.0"
   inkscape:pagecheckerboard="0"
   inkscape:deskcolor="#d1d1d1"
   inkscape:zoom="0.37249737"
   inkscape:cx="754.36775"
   inkscape:cy="828.19378"
   inkscape:window-width="1920"
   inkscape:window-height="944"
   inkscape:window-x="0"
   inkscape:window-y="0"
   inkscape:window-maximized="1"
   inkscape:current-layer="Capa_2_00000174583160797886262930000000574717726575293078_" />
<path
   style="fill:#f9d355"
   d="m 1885.4887,720.77124 c -8.785,-14.404 -24.264,-23.082 -36.799,-34.374 -12.677,-11.42 -22.578,-25.9 -28.622,-41.858 -6.281,-16.585 -8.727,-35.211 -19.858,-49.015 -8.419,-10.44 -19.791,-16.172 -32.146,-19.944 -14.092,-4.303 -29.464,-6.057 -43.18,-9.339 -14.236,-3.408 -25.563,-10.499 -38.938,-15.447 -16.945,-6.267 -32.012,-0.507 -48.972,2.319 -0.523,0.087 -1.055,0.159 -1.592,0.224 -17.714,-8.913 -75.251,-35.4 -157.667,-72.262 C 1111.0237,317.14024 252.58365,-52.563762 230.49565,6.2832377 c -5.188,13.7770003 34.638,50.2010003 103.023,100.3460023 l 0.01,0.007 C 147.67565,35.429238 8.7776513,-8.9347623 0.4136513,13.398238 c -7.33,19.574 83.4329997,88.329002 218.4789987,177.401002 -96.57,-32.535 -159.473999,-47.236 -164.825999,-32.797 -7.252,19.523 88.129999,90.139 230.088999,182.118 -43.117,-10.43 -69.501,-12.718 -72.513,-3.904 -16.789,49.253 682.512,431.507 988.74005,594.159 72.735,38.654 123.327,64.871 136.826,71.34096 5.673,2.703 11.444,5.059 17.276,7.082 2.57,18.971 2.379,39.158 16.454,51.006 10.949,9.215 26.571,9.487 40.28,13.591 33.151,9.922 56.441,43.094 90.484,49.297 36.906,6.723 73.525,-20.654 110.55,-14.63 12.202,1.985 23.835,7.569 36.197,7.62 24.53,0.102 46.344,-21.221 64.325,-35.518 20.545,-16.334 38.883,-22.29 64.526,-28.211 21.488,-4.961 45.531,-14.942 53.703,-37.144 4.332,-11.77 3.222,-24.46196 6.714,-36.49496 3.933,-13.559 11.122,-26.196 20.962,-36.338 7.784,-8.024 17.315,-14.795 22.336,-24.783 8.967,-17.84 1.904,-42.001 0.263,-60.838 -2.112,-24.263 1.344,-44.56 7.168,-68.199 5.526,-22.433 9.072,-47.66 -2.958,-67.385 z"
   id="path1" />
<path
   style="fill:#e46831"
   d="m 1885.4887,720.77124 c -8.785,-14.404 -24.264,-23.082 -36.799,-34.374 -12.677,-11.421 -22.578,-25.9 -28.622,-41.858 -6.281,-16.585 -8.727,-35.21 -19.858,-49.016 -8.419,-10.44 -19.791,-16.171 -32.146,-19.944 -14.092,-4.303 -29.463,-6.057 -43.18,-9.34 -14.236,-3.406 -25.563,-10.499 -38.939,-15.446 -16.945,-6.267 -32.012,-0.507 -48.971,2.319 -0.523,0.087 -1.054,0.16 -1.59,0.225 -11.988,1.471 -27.368,-2.195 -39.011,-4.379 -27.077,-5.08 -49.989,-19.885 -76.904,-4.529 -9.452,5.393 -18.311,12.269 -28.822,15.083 -25.395,6.797 -54.037,-11.594 -77.758,-0.264 -15.86,7.574 -23.355,25.773 -36.331,37.628 -13.81,12.615 -32.91,17.29 -49.364,26.186 -16.453,8.896 -31.725,26.194 -27.26,44.358 2.847,11.59 13.069,20.197 16.312,31.684 5.233,18.535 -8.936,36.492 -22.487,50.179 -13.55,13.687 -28.694,30.162 -25.818,49.207 1.296,8.588 6.275,16.424 6.704,25.099 0.788,15.939 -13.844,30.967 -9.125,46.211 3.176,10.261 13.789,15.873 22.596,22.022 21.177,14.783 9.014,38.861 22.433,58.504 8.284,12.126 24.089,17.051 33.301,28.488 6.711,8.332 9.141,18.953 10.636,29.98496 2.57,18.972 2.379,39.158 16.454,51.006 10.949,9.215 26.571,9.487 40.279,13.591 33.152,9.923 56.442,43.095 90.484,49.297 36.906,6.724 73.525,-20.653 110.551,-14.63 12.2,1.985 23.834,7.569 36.196,7.621 24.53,0.102 46.345,-21.221 64.326,-35.518 20.545,-16.334 38.883,-22.29 64.526,-28.211 21.488,-4.961 45.531,-14.943 53.703,-37.144 4.332,-11.77 3.222,-24.46196 6.714,-36.49496 3.933,-13.558 11.122,-26.197 20.962,-36.339 7.784,-8.024 17.317,-14.795 22.336,-24.783 8.969,-17.84 1.904,-42.001 0.264,-60.838 -2.113,-24.262 1.343,-44.559 7.167,-68.199 5.525,-22.434 9.073,-47.661 -2.959,-67.386 z m -77.505,61.844 c -13.641,22.544 -26.649,49.109 -26.023,76.1 0.361,15.535 6.05,30.374 9.625,45.496 3.576,15.122 4.817,31.95 -3.007,45.376 -8.311,14.261 -24.937,21.431 -41.004,25.215 -16.067,3.784 -32.915,5.21 -47.857,12.224 -24.3,11.405 -41.115,36.47096 -66.876,44.01096 -20.083,5.879 -41.454,-0.118 -61.798,-5.014 -15.097,-3.632 -31.253,-6.707 -46.721,-3.584 -7.482,1.51 -12.937,4.855 -20.653,4.347 -6.389,-0.421 -12.703,-2.123 -18.589,-4.604 -24.88,-10.49 -42.507,-34.84696 -53.432,-58.67096 -2.532,-5.522 -4.961,-11.282 -9.259,-15.576 -12.93,-12.918 -35.491,-6.934 -51.79,-15.204 -13.064,-6.629 -19.458,-20.334 -22.468,-33.884 -3.094,-13.927 -13.061,-24.901 -16.384,-39.031 -3.206,-13.626 -1.186,-29.205 8.359,-39.443 6.376,-6.84 15.907,-11.313 19.144,-20.086 3.766,-10.203 -2.714,-21.071 -8.85,-30.05 -4.464,-6.533 -10.021,-14.761 -9.62,-23.043 0.397,-8.188 6.749,-14.333 10.033,-21.323 4.095,-8.719 1.461,-18.896 0.447,-28.476 -1.635,-15.456 1.416,-31.632 9.967,-44.611 8.55,-12.979 22.856,-22.397 38.353,-23.594 14.498,-1.12 29.069,4.698 43.414,2.324 22.672,-3.753 38.064,-26.551 60.365,-32.097 12.719,-3.163 26.07,-0.298 38.86,2.568 10.756,2.411 27.014,9.434 37.847,7.872 10.904,-1.572 20.038,-13.028 30.992,-15.861 15.373,-3.977 31.388,4.066 43.52,14.31 12.134,10.244 22.287,22.974 35.83,31.265 14.642,8.963 32.036,12.01 48.073,18.139 27.689,10.583 51.553,30.885 66.438,56.521 2.561,4.411 4.757,8.952 6.516,13.571 6.887,18.073 7.114,37.348 -3.452,54.813 z"
   id="path2" />
<path
   style="fill:#faef7d"
   d="m 1766.7497,705.47024 c -11.912,-24.614 -36.301,-42.776 -63.296,-47.136 -26.149,-4.222 -53.253,3.811 -79.247,-1.283 -20.992,-4.115 -39.292,-16.376 -58.309,-26.173 -19.016,-9.797 -41.037,-17.396 -61.548,-11.321 -30.456,9.021 -48.473,45.382 -79.963,49.551 -8.623,1.141 -17.37,-0.359 -26.064,-0.108 -8.695,0.251 -18.078,2.746 -23.221,9.76 -6.714,9.154 -3.711,22.051 0.788,32.474 4.5,10.422 10.37,21.238 8.505,32.435 -2.32,13.93 -16.039,23.992 -17.931,37.986 -2.091,15.464 10.903,29.285 11.555,44.876 0.677,16.183 -11.956,30.363 -12.666,46.544 -0.927,21.161 18.906,37.922 39.176,44.071 20.269,6.149 42.084,5.302 62.55,10.759 19.001,5.065 37.837,17.803 41.747,38.084 1.819,9.434 4.817,12.099 15.376,13.539 10.214,1.393 20.815,-0.753 30.791,-2.815 18.214,-3.765 35.615,-8.951 54.303,-10.192 16.938,-1.124 33.93,-0.355 50.892,-0.561 17.598,-0.214 33.206,-3.129 48.792,-11.635 14.549,-7.939 27.449,-19.224 37.351,-32.505 9.437,-12.658 16.644,-27.504 18.402,-43.34 1.877,-16.944 -4.609,-33.12 -5.973,-49.881 -1.714,-21.033 6.175,-40.214 12.319,-59.679 3.847,-12.192 4.944,-25.262 3.257,-37.946 -1.176,-8.83 -3.7,-17.474 -7.586,-25.504 z"
   id="path3" />
<path
   style="fill:#de3e2c"
   d="m 1885.4887,720.77124 c -8.785,-14.404 -24.264,-23.082 -36.799,-34.374 -12.677,-11.421 -22.578,-25.9 -28.622,-41.858 -6.281,-16.585 -8.727,-35.21 -19.858,-49.016 -8.419,-10.44 -19.791,-16.171 -32.146,-19.944 -14.092,-4.303 -29.463,-6.057 -43.18,-9.34 -14.236,-3.406 -25.563,-10.499 -38.939,-15.446 -16.945,-6.267 -32.012,-0.507 -48.971,2.319 -0.523,0.087 -1.054,0.16 -1.59,0.225 -17.714,-8.913 -75.253,-35.4 -157.669,-72.263 -6.421,-1.945 -19.713,-6.455 -22.087,-0.283 -0.827,2.153 0.737,8.538 2.33,14.413 1.229,4.534 2.477,8.764 2.654,10.51 0.497,4.87 -5.224,4.449 -12.489,2.108 -8.22,-2.649 -18.415,-7.757 -23.817,-10.442 -1.225,-0.609 -2.205,-1.094 -2.859,-1.397 -6.382,-2.964 -12.058,-5.512 -16.917,-7.246 -5.257,-1.876 -9.556,-2.799 -12.745,-2.25 -10.467,1.801 -4.612,13.572 -8.569,19.824 -7.537,11.909 -25.774,2.549 -35.453,-1.38 -7.272,-2.953 -16.829,-4.103 -23.132,-0.611 -2.217,1.228 -4.032,3.029 -5.203,5.53 -5.962,12.744 12.246,28.186 5.139,40.328 -5.042,8.617 -17.691,6.948 -27.466,4.912 -14.025,-2.921 -28.996,-4.142 -42.37,0.993 -13.375,5.134 -24.583,18.046 -23.865,32.355 0.931,18.608 20.598,33.559 17.96,52.002 -1.605,11.224 -11.403,19.701 -21.898,23.994 -10.494,4.293 -21.974,5.43 -32.931,8.35 -21.871,5.828 -43.526,21.986 -45.58,44.528 -1.318,14.464 5.756,28.542 15.126,39.639 9.37,11.097 21.044,19.985 31.347,30.221 1.136,1.128 2.26,2.343 3.341,3.624 7.098,8.417 12.286,19.703 6.228,28.301 -3.625,5.144 -10.05,7.212 -16.126,9.59 -5.285,2.069 -10.305,4.374 -12.988,9.145 -2.567,4.564 -2.02,10.212 0.35,14.972 0.812,1.632 1.837,3.159 3.025,4.503 4.657,5.266 11.295,8.292 17.829,10.889 4.348,1.729 8.939,3.468 11.996,7.011 3.057,3.544 3.847,9.54 0.354,12.656 l -0.726,0.572 c -8.036,5.556 -21.541,-9.401 -29.117,-2.418 -2.878,2.652 -2.841,7.411 -0.984,10.856 1.856,3.446 5.104,5.885 8.251,8.212 5.012,3.705 19.158,10.369 21.84,15.956 3.263,6.797 -2.904,4.456 -7.782,9.336 72.735,38.655 123.326,64.871 136.825,71.34096 5.673,2.703 11.444,5.059 17.277,7.082 2.57,18.972 2.379,39.158 16.454,51.006 10.949,9.215 26.571,9.487 40.279,13.591 33.152,9.923 56.442,43.095 90.484,49.297 36.906,6.724 73.525,-20.653 110.551,-14.63 12.2,1.985 23.834,7.569 36.196,7.621 24.53,0.102 46.345,-21.221 64.326,-35.518 20.545,-16.334 38.883,-22.29 64.526,-28.211 21.488,-4.961 45.531,-14.943 53.703,-37.144 4.332,-11.77 3.222,-24.46196 6.714,-36.49496 3.933,-13.558 11.122,-26.197 20.962,-36.339 7.784,-8.024 17.317,-14.795 22.336,-24.783 8.969,-17.84 1.904,-42.001 0.264,-60.838 -2.113,-24.262 1.343,-44.559 7.167,-68.199 5.528,-22.435 9.076,-47.662 -2.956,-67.387 z m -22.438,184.707 c -3.969,24.893 -32.326,36.64 -48.8,55.719 -20.408,23.638 -24.539,61.64196 -52.204,76.13196 -13.666,7.158 -30.086,6.566 -44.599,11.796 -15.498,5.583 -28.042,17.505 -43.438,23.354 -25.118,9.54 -53.12,1.576 -79.975,2.37 -20.969,0.619 -41.37,6.641 -62.15,9.524 -20.778,2.883 -43.287,2.238 -60.901,-9.157 -18.566,-12.013 -29.128,-34.311 -48.742,-44.529 -10.421,-5.43 -22.828,-7.088 -32.027,-14.4 -21.126,-16.79396 -14.547,-53.21196 -33.935,-71.98396 -5.656,-5.478 -13.081,-8.909 -18.535,-14.59 -14.706,-15.324 -12.739,-44.071 -31.583,-53.868 -7.713,-4.011 -13.782,-0.896 -18.895,-8.881 -4.524,-7.067 -5.601,-16.451 -4.504,-24.612 1.585,-11.79 7.28,-22.579 13.05,-32.983 18.616,-33.561 39.773,-69.362 35.246,-107.472 -1.163,-9.79 -4.027,-19.352 -4.655,-29.19 -0.626,-9.839 1.383,-20.502 8.438,-27.389 9.037,-8.824 23.265,-8.96 34.706,-14.306 21.407,-10.003 30.338,-36.616 50.53,-48.891 14.929,-9.077 33.802,-8.859 50.887,-5.201 17.087,3.659 33.413,10.423 50.584,13.656 46.357,8.727 90.888,-32.924 137.47,-13.977 17.278,7.027 30.658,22.471 48.778,26.891 14.74,3.596 31.094,-0.577 44.892,5.735 6.384,2.921 11.609,7.855 16.487,12.905 14.805,15.328 27.608,32.584 38.021,51.178 4.696,8.386 8.906,17.044 12.594,25.921 6.319,15.21 11.194,31.193 20.111,45.04 10.533,16.358 26.886,30.334 29.467,49.618 2.923,21.831 -13.109,42.266 -12.839,64.29 0.198,16.003 9.039,31.494 6.521,47.301 z"
   id="path4" />
<path
   style="fill:#c04518"
   d="m 1310.5467,950.32524 c -13.419,-19.643 -1.255,-43.722 -22.433,-58.504 -8.807,-6.149 -19.421,-11.76 -22.596,-22.022 -4.719,-15.244 9.914,-30.272 9.125,-46.211 -0.429,-8.675 -5.408,-16.511 -6.704,-25.099 -2.877,-19.044 12.268,-35.52 25.818,-49.207 13.552,-13.687 27.721,-31.643 22.487,-50.179 -3.243,-11.487 -13.464,-20.093 -16.312,-31.684 -4.465,-18.164 10.807,-35.463 27.26,-44.358 16.454,-8.896 35.553,-13.571 49.364,-26.186 12.976,-11.854 20.471,-30.053 36.331,-37.628 23.721,-11.33 52.364,7.061 77.758,0.264 10.512,-2.814 19.37,-9.69 28.822,-15.083 26.915,-15.356 49.827,-0.551 76.904,4.529 11.643,2.184 27.023,5.85 39.011,4.379 -17.714,-8.913 -75.253,-35.4 -157.669,-72.263 -6.421,-1.945 -19.713,-6.455 -22.087,-0.283 -0.827,2.153 0.737,8.538 2.33,14.413 1.229,4.534 2.477,8.764 2.654,10.51 0.497,4.87 -5.224,4.449 -12.489,2.108 -8.22,-2.649 -18.415,-7.757 -23.817,-10.442 -1.225,-0.609 -2.205,-1.094 -2.859,-1.397 -6.382,-2.964 -12.058,-5.512 -16.917,-7.246 -5.257,-1.876 -9.556,-2.799 -12.745,-2.25 -10.467,1.801 -4.612,13.572 -8.569,19.824 -7.537,11.909 -25.774,2.549 -35.453,-1.38 -7.272,-2.953 -16.829,-4.103 -23.132,-0.611 -2.217,1.228 -4.032,3.029 -5.203,5.53 -5.962,12.744 12.246,28.186 5.139,40.328 -5.042,8.617 -17.691,6.948 -27.466,4.912 -14.025,-2.921 -28.996,-4.142 -42.37,0.993 -13.375,5.134 -24.583,18.046 -23.865,32.355 0.931,18.608 20.598,33.559 17.96,52.002 -1.605,11.224 -11.403,19.701 -21.898,23.994 -10.494,4.293 -21.974,5.43 -32.931,8.35 -21.871,5.828 -43.526,21.986 -45.58,44.528 -1.318,14.464 5.756,28.542 15.126,39.639 9.37,11.097 21.044,19.985 31.347,30.221 1.136,1.128 2.26,2.343 3.341,3.624 7.098,8.417 12.286,19.703 6.228,28.301 -3.625,5.144 -10.05,7.212 -16.126,9.59 -5.285,2.069 -10.305,4.374 -12.988,9.145 -2.567,4.564 -2.02,10.212 0.35,14.972 0.812,1.632 1.837,3.159 3.025,4.503 4.657,5.266 11.295,8.292 17.829,10.889 4.348,1.729 8.939,3.468 11.996,7.011 3.057,3.544 3.847,9.54 0.354,12.656 l -0.726,0.572 c -8.036,5.556 -21.541,-9.401 -29.117,-2.418 -2.878,2.652 -2.841,7.411 -0.984,10.856 1.856,3.446 5.104,5.885 8.251,8.212 5.012,3.705 19.158,10.369 21.84,15.956 3.263,6.797 -2.904,4.456 -7.782,9.336 72.735,38.655 123.326,64.871 136.825,71.34096 5.673,2.703 11.444,5.059 17.277,7.082 -1.495,-11.03196 -3.925,-21.65296 -10.636,-29.98496 -9.209,-11.439 -25.015,-16.363 -33.298,-28.489 z"
   id="path5" />
<path
   style="fill:#fab71d"
   d="m 1460.6117,505.71424 c -0.177,-1.746 -1.425,-5.976 -2.654,-10.51 C 1205.2937,380.93524 410.52265,34.407238 392.86565,81.973238 c -4.059,10.934 32.047,41.872002 92.977,84.665002 18.604,13.068 39.526,27.241 62.325,42.287 -222.606,-90.389 -412.609,-159.432002 -421.143,-136.447002 -6.124,16.497 79.183,78.532002 203.232,158.115002 40.035,25.685 84.106,53.198 130.441,81.597 -146.212,-55.792 -253.261,-89.735 -259.618,-72.613 -17.916,48.265 746.782,486.32 974.61605,613.225 -2.37,-4.761 -2.917,-10.408 -0.35,-14.972 2.683,-4.771 7.703,-7.075 12.988,-9.145 6.076,-2.378 12.501,-4.446 16.126,-9.59 6.059,-8.598 0.87,-19.885 -6.228,-28.301 -1.081,-1.281 -2.204,-2.496 -3.341,-3.624 -10.303,-10.236 -21.976,-19.124 -31.347,-30.221 -9.369,-11.097 -16.444,-25.175 -15.126,-39.639 2.055,-22.542 23.709,-38.7 45.58,-44.528 10.957,-2.919 22.437,-4.056 32.931,-8.35 10.494,-4.293 20.293,-12.77 21.898,-23.994 2.638,-18.443 -17.029,-33.394 -17.96,-52.002 -0.718,-14.308 10.49,-27.22 23.865,-32.355 13.374,-5.135 28.345,-3.914 42.37,-0.993 9.775,2.036 22.423,3.705 27.466,-4.912 7.107,-12.143 -11.101,-27.584 -5.139,-40.328 1.171,-2.501 2.986,-4.302 5.203,-5.53 6.302,-3.492 15.86,-2.342 23.132,0.611 9.678,3.93 27.915,13.29 35.453,1.38 3.956,-6.252 -1.898,-18.023 8.569,-19.824 3.189,-0.548 7.488,0.374 12.745,2.25 4.859,1.734 10.535,4.282 16.917,7.246 0.654,0.303 1.633,0.788 2.859,1.397 8.073,3.534 16.016,7.016 23.817,10.442 7.265,2.343 12.986,2.763 12.488,-2.106 z"
   id="path6" />
<path
   style="fill:#f59b1a"
   d="m 668.80365,212.08324 c -5.885,15.953 93.899,84.308 229.081,167.972 -78.277,-33.205 -158.446,-66.534 -232.63,-96.252 -173.832,-69.637 -314.791,-119.446 -321.479,-101.364 -8.376,22.649 189.26,147.637 402.093,273.986 -40.948,-15.328 -77.71,-28.223 -107.574,-37.378 -46.119,-14.139 -75.789,-19.363 -79.021,-10.866 -13.731,36.095 439.419,309.521 629.06005,420.505 6.076,-2.378 12.501,-4.446 16.126,-9.59 6.059,-8.598 0.87,-19.885 -6.228,-28.301 -1.081,-1.281 -2.204,-2.496 -3.341,-3.624 -10.303,-10.236 -21.976,-19.124 -31.347,-30.221 -9.369,-11.097 -16.444,-25.175 -15.126,-39.639 2.055,-22.542 23.709,-38.7 45.58,-44.528 10.957,-2.919 22.437,-4.056 32.931,-8.35 10.494,-4.293 20.293,-12.77 21.898,-23.994 2.638,-18.443 -17.029,-33.394 -17.96,-52.002 -0.718,-14.308 10.49,-27.22 23.865,-32.355 13.374,-5.135 28.345,-3.914 42.37,-0.993 9.775,2.036 22.423,3.705 27.466,-4.912 7.107,-12.143 -11.101,-27.584 -5.139,-40.328 1.171,-2.501 2.986,-4.302 5.203,-5.53 6.302,-3.492 15.86,-2.342 23.132,0.611 9.678,3.93 27.915,13.29 35.453,1.38 3.956,-6.252 -1.898,-18.023 8.569,-19.824 3.189,-0.548 7.488,0.374 12.745,2.25 -289.479,-126.343 -724.08405,-308.218 -735.72705,-276.653 z"
   id="path7" />
<path
   style="fill:#e46831"
   d="m 871.67965,342.33824 c -3.578,9.649 38.774,42.148 104.505,85.538 23.278,15.368 49.48905,32.1 77.63205,49.668 -208.72805,-88.466 -434.39605,-177.893 -442.24805,-156.764 -6.894,18.548 150.403,118.935 319.862,220.31 -38.624,-14.392 -72.589,-26.057 -98.328,-33.272 -29.663,-8.316 -48.401,-10.722 -50.746,-4.583 -9.514,24.911 245.14405,184.642 415.87505,287.56 -1.081,-1.281 -2.204,-2.496 -3.341,-3.624 -10.303,-10.236 -21.976,-19.124 -31.347,-30.221 -9.369,-11.097 -16.444,-25.175 -15.126,-39.639 2.055,-22.542 23.709,-38.7 45.58,-44.528 10.957,-2.919 22.437,-4.056 32.931,-8.35 10.494,-4.293 20.293,-12.77 21.898,-23.994 2.638,-18.443 -17.029,-33.394 -17.96,-52.002 -0.718,-14.308 10.49,-27.22 23.865,-32.355 13.374,-5.135 28.345,-3.914 42.37,-0.993 9.775,2.036 22.423,3.705 27.466,-4.912 7.107,-12.143 -11.101,-27.584 -5.139,-40.328 1.171,-2.501 2.986,-4.302 5.203,-5.53 -211.226,-89.824 -445.10505,-183.149 -452.95205,-161.981 z"
   id="path8" />
<path
   style="fill:#f9d355"
   d="m 1695.4647,679.15324 c -39.993,-10.199 -78.113,8.118 -85.144,40.912 -7.033,32.794 19.688,67.647 59.682,77.847 39.993,10.199 78.113,-8.118 85.144,-40.912 7.031,-32.795 -19.689,-67.648 -59.682,-77.847 z"
   id="path9" />
<path
   style="fill:#fef6b8"
   d="m 1670.0007,797.91224 c -39.993,-10.199 -66.713,-45.052 -59.682,-77.847 0.968,-4.515 2.531,-8.752 4.603,-12.68 l 0.051,-0.095 0.695,-1.271 0.012,-0.022 0.561,-0.957 0.173,-0.29 0.52,-0.833 0.248,-0.389 0.496,-0.751 0.316,-0.463 0.474,-0.678 0.383,-0.526 0.451,-0.609 0.473,-0.611 0.393,-0.504 0.9,-1.097 0.098,-0.116 0.965,-1.103 0.064,-0.072 0.508,-0.554 0.196,-0.208 0.834,-0.87 0.289,-0.292 0.693,-0.683 0.421,-0.403 0.435,-0.408 0.685,-0.625 0.398,-0.352 0.714,-0.618 0.362,-0.305 0.66,-0.544 0.282,-0.229 0.865,-0.678 0.305,-0.234 0.905,-0.674 0.254,-0.184 0.98,-0.694 0.151,-0.104 0.951,-0.639 0.185,-0.122 1.08,-0.69 0.143,-0.089 1.137,-0.69 0.088,-0.051 1.204,-0.694 c -5.251,-2.691 -10.392,-5.703 -15.624,-8.399 -11.19,-5.764 -24.146,-10.235 -36.215,-6.661 -6.186,1.832 -11.5,5.582 -16.569,9.808 -2.366,6.52 -8.434,11.44 -16.165,13.408 -4.36,2.982 -9.012,5.236 -14.313,5.938 -5.074,0.672 -10.22,-0.211 -15.337,-0.064 -5.116,0.147 -10.635,1.615 -13.663,5.743 -3.951,5.386 -2.183,12.974 0.464,19.107 0.313,0.724 0.636,1.452 0.963,2.183 3.055,2.753 4.612,6.567 3.771,10.165 0.485,2.218 0.648,4.464 0.269,6.736 -1.366,8.196 -9.437,14.116 -10.55,22.35 -1.23,9.099 6.415,17.231 6.798,26.405 0.399,9.521 -7.035,17.865 -7.452,27.385 -0.546,12.451 11.123,22.313 23.05,25.931 11.927,3.617 24.761,3.12 36.804,6.33 11.179,2.98 22.261,10.475 24.563,22.408 1.07,5.551 2.834,7.119 9.046,7.966 6.01,0.82 12.248,-0.442 18.116,-1.656 10.717,-2.216 20.956,-5.267 31.951,-5.997 9.965,-0.661 19.964,-0.209 29.943,-0.33 10.355,-0.126 19.538,-1.841 28.709,-6.846 8.56,-4.671 16.15,-11.311 21.976,-19.125 5.552,-7.448 9.792,-16.182 10.826,-25.5 1.106,-9.969 -2.711,-19.487 -3.515,-29.349 -0.151,-1.867 -0.173,-3.708 -0.091,-5.529 -16.373,11.932 -40.17,16.389 -64.674,10.141 z"
   id="path10" />
<path
   style="fill:#f59b1a"
   d="m 1448.1237,507.82224 c -7.801,-3.426 -15.744,-6.909 -23.817,-10.442 5.401,2.685 15.596,7.792 23.817,10.442 z"
   id="path11" />
<path
   style="fill:#f9d355"
   d="m 1569.5387,675.31424 c 0.892,-12.129 -10.442,-23.316 -25.314,-24.986 -14.873,-1.67 -27.653,6.808 -28.543,18.937 -0.892,12.129 10.442,23.316 25.314,24.986 14.873,1.67 27.652,-6.808 28.543,-18.937 z"
   id="path12" />
<path
   style="fill:#fab71d"
   d="m 1540.0757,659.68524 c 14.872,1.67 26.206,12.857 25.314,24.986 l -0.108,1.027 c 1.445,-1.74 2.57,-3.69 3.307,-5.805 l 0.052,-0.15 0.106,-0.32 0.154,-0.512 0.025,-0.085 0.162,-0.62 0.01,-0.04 0.148,-0.678 0.012,-0.066 0.1,-0.576 0.03,-0.194 0.065,-0.481 0.023,-0.193 0.061,-0.665 c 0.892,-12.129 -10.442,-23.316 -25.315,-24.986 l -0.692,-0.07 -0.105,-0.01 -0.576,-0.046 -0.181,-0.011 -0.508,-0.031 -0.188,-0.01 -0.474,-0.02 -0.308,-0.01 -0.361,-0.01 -0.335,-10e-4 -0.325,10e-4 -0.349,0.01 -0.323,0.01 -0.311,0.012 -0.35,0.015 -0.316,0.019 -0.339,0.022 -0.305,0.025 -0.345,0.03 -0.312,0.031 -0.325,0.035 -0.316,0.038 -0.336,0.044 -0.302,0.043 -0.309,0.046 -0.336,0.055 -0.299,0.052 -0.317,0.059 -0.294,0.057 -0.346,0.071 -0.263,0.057 -0.337,0.076 -0.281,0.068 -0.315,0.078 -0.289,0.075 -0.324,0.089 -0.25,0.071 -0.349,0.102 -0.244,0.075 -0.328,0.105 -0.258,0.085 -0.32,0.109 -0.247,0.088 -0.332,0.122 -0.225,0.086 -0.33,0.129 -0.214,0.087 -0.365,0.152 -0.143,0.062 -0.395,0.175 -0.143,0.066 -0.399,0.187 -0.105,0.051 -0.429,0.214 -0.052,0.027 -0.462,0.242 -0.047,0.026 -0.459,0.254 -0.026,0.015 -0.539,0.317 -0.182,0.113 -0.336,0.21 -0.236,0.154 -0.285,0.188 -0.238,0.165 -0.255,0.178 -0.269,0.197 -0.221,0.163 -0.26,0.201 -0.218,0.171 -0.254,0.206 -0.21,0.173 -0.263,0.226 -0.181,0.158 -0.271,0.245 -0.162,0.15 -0.282,0.27 -0.132,0.13 -0.283,0.284 -0.134,0.138 -0.271,0.288 -0.12,0.132 -0.281,0.316 -0.085,0.098 -0.294,0.349 -0.058,0.074 -0.309,0.388 -0.016,0.022 -0.326,0.436 v 0 l -0.344,0.493 -0.116,0.175 -0.206,0.316 -0.148,0.239 -0.161,0.264 -0.158,0.274 -0.13,0.23 -0.164,0.305 -0.105,0.202 -0.168,0.337 -0.085,0.181 -0.162,0.353 -0.072,0.164 -0.165,0.389 -0.028,0.073 c -0.308,0.767 -0.564,1.557 -0.764,2.368 l -0.182,0.818 -0.01,0.025 -0.098,0.542 -0.01,0.029 -0.081,0.552 v 0.01 c 5.115,-6.159 14.22,-9.685 24.292,-8.553 z"
   id="path13" />
<path
   style="fill:#f9d355"
   d="m 1416.5177,809.82124 c -16.588,17.131 -13.594,48.212 6.685,69.42 20.28,21.209 50.167,24.514 66.755,7.384 16.588,-17.131 13.595,-48.212 -6.686,-69.42 -20.28,-21.21 -50.167,-24.515 -66.754,-7.384 z"
   id="path14" />
<path
   style="fill:#fab71d"
   d="m 1441.2047,870.37724 c -20.28,-21.208 -23.273,-52.289 -6.685,-69.42 l 1.453,-1.41 c -5.022,0.926 -9.757,2.799 -13.963,5.654 l -0.166,0.113 -0.557,0.391 -0.514,0.375 -0.369,0.281 -0.417,0.324 -0.286,0.227 -0.661,0.548 -0.249,0.215 -0.556,0.491 -0.16,0.142 -0.675,0.635 -0.2,0.195 -0.682,0.683 c -16.588,17.131 -13.594,48.212 6.685,69.42 l 0.948,0.971 0.262,0.258 0.694,0.682 0.355,0.337 0.617,0.582 0.41,0.373 0.565,0.512 0.412,0.358 0.6,0.522 0.39,0.326 0.603,0.503 0.481,0.387 0.523,0.417 0.507,0.391 0.528,0.403 0.497,0.368 0.527,0.386 0.534,0.377 0.518,0.363 0.507,0.345 0.551,0.368 0.5,0.325 0.566,0.362 0.518,0.32 0.531,0.325 0.558,0.33 0.513,0.298 0.573,0.324 0.508,0.281 0.572,0.306 0.515,0.271 0.58,0.296 0.514,0.255 0.587,0.285 0.495,0.234 0.621,0.285 0.485,0.216 0.599,0.26 0.512,0.215 0.613,0.25 0.478,0.188 0.648,0.249 0.438,0.162 0.679,0.244 0.432,0.148 0.689,0.231 0.418,0.133 0.703,0.219 0.392,0.115 0.738,0.212 0.331,0.089 0.812,0.213 0.232,0.057 0.895,0.214 0.168,0.037 0.954,0.206 0.109,0.021 1.01,0.194 0.043,0.01 1.208,0.201 0.467,0.066 0.715,0.1 0.624,0.073 0.58,0.066 0.624,0.057 0.565,0.048 0.667,0.044 0.512,0.03 0.703,0.029 0.471,0.015 0.716,0.01 h 0.463 l 0.725,-0.01 0.43,-0.01 0.77,-0.03 0.369,-0.02 0.792,-0.051 0.366,-0.03 0.8,-0.074 0.316,-0.034 0.836,-0.101 0.279,-0.038 0.88,-0.131 0.188,-0.032 0.935,-0.166 0.143,-0.028 1.155,-0.244 0.1,-0.022 1.118,-0.274 0.101,-0.026 1.12,-0.314 0.074,-0.022 1.14,-0.36 h 0.012 l 0.922,-0.323 0.402,-0.152 0.522,-0.2 0.447,-0.182 0.452,-0.188 0.503,-0.22 0.365,-0.164 0.557,-0.26 0.292,-0.143 0.599,-0.3 0.212,-0.111 0.666,-0.355 0.019,-0.011 c 2.435,-1.343 4.724,-2.98 6.827,-4.919 -15.436,2.838 -33.571,-3.301 -47.305,-17.663 z"
   id="path15" />
<path
   style="fill:#f9d355"
   d="m 1570.0877,906.82724 c -14.216,-1.596 -26.43,6.507 -27.281,18.1 -0.852,11.593 9.98,22.285 24.196,23.881 14.214,1.597 26.428,-6.507 27.281,-18.1 0.851,-11.593 -9.982,-22.285 -24.196,-23.881 z"
   id="path16" />
<path
   style="fill:#fab71d"
   d="m 1570.0867,906.82724 -0.658,-0.067 -0.193,-0.016 -0.453,-0.037 -0.256,-0.016 -0.403,-0.024 -0.248,-0.011 -0.385,-0.016 -0.333,-0.01 h -0.311 l -0.322,-10e-4 -0.315,10e-4 h -0.301 l -0.344,0.01 -0.285,0.011 -0.339,0.015 -0.298,0.017 -0.321,0.021 -0.31,0.024 -0.318,0.027 -0.278,0.028 -0.347,0.037 -0.288,0.035 -0.298,0.038 -0.317,0.045 -0.297,0.045 -0.315,0.051 -0.28,0.047 -0.299,0.055 -0.316,0.061 -0.267,0.055 -0.301,0.065 -0.326,0.074 -0.23,0.055 -0.351,0.088 -0.228,0.059 -0.339,0.093 -0.238,0.068 -0.307,0.09 -0.273,0.085 -0.292,0.093 -0.248,0.082 -0.311,0.107 -0.226,0.081 -0.323,0.119 -0.204,0.077 -0.332,0.13 -0.203,0.083 -0.33,0.137 -0.16,0.069 -0.384,0.17 -0.078,0.036 -0.436,0.204 -0.057,0.028 -0.44,0.218 -0.066,0.035 -0.421,0.221 -0.078,0.042 -0.41,0.227 -0.034,0.02 -0.503,0.296 -0.222,0.137 -0.297,0.185 -0.177,0.116 -0.307,0.202 -0.264,0.184 -0.199,0.139 -0.306,0.224 -0.161,0.119 -0.282,0.218 -0.177,0.139 -0.272,0.221 -0.17,0.141 -0.286,0.245 -0.127,0.111 -0.311,0.28 -0.106,0.099 -0.293,0.279 -0.113,0.111 -0.301,0.303 -0.074,0.077 -0.306,0.326 -0.075,0.082 -0.3,0.337 -0.053,0.062 -0.429,0.517 -0.172,0.223 -0.234,0.303 -0.194,0.269 -0.194,0.273 -0.199,0.296 -0.165,0.253 -0.202,0.324 -0.138,0.23 -0.201,0.35 -0.122,0.223 -0.191,0.363 -0.105,0.21 -0.19,0.393 -0.078,0.172 -0.195,0.447 -0.034,0.082 c -0.467,1.139 -0.815,2.332 -1.03,3.571 l -0.015,0.078 -0.084,0.561 -0.01,0.065 0,-0.001 c 4.885,-5.886 13.587,-9.256 23.214,-8.175 14.214,1.596 25.047,12.289 24.196,23.882 l -0.103,0.981 c 1.595,-1.922 2.783,-4.111 3.464,-6.503 l 0.013,-0.05 0.166,-0.635 v 0 l 0.143,-0.658 0.011,-0.056 0.098,-0.56 0.028,-0.181 0.06,-0.452 0.025,-0.199 0.059,-0.629 c 0.859,-11.592 -9.974,-22.284 -24.19,-23.88 z"
   id="path17" />
<path
   style="fill:#fab71d"
   d="m 1745.3637,712.95524 -0.467,-0.678 -0.961,-1.345 c -1.63,-2.228 -3.406,-4.39 -5.316,-6.473 -0.573,-0.625 -1.159,-1.242 -1.756,-1.853 l -1.211,-1.21 -1.242,-1.19 c -1.047,-0.983 -2.128,-1.943 -3.24,-2.88 -1.112,-0.938 -2.254,-1.851 -3.426,-2.739 l -0.706,-0.53 -1.435,-1.042 -0.727,-0.511 -1.478,-1.004 c -0.497,-0.33 -0.998,-0.657 -1.503,-0.978 -0.505,-0.321 -1.016,-0.638 -1.531,-0.95 l -0.775,-0.466 c -1.296,-0.77 -2.622,-1.511 -3.971,-2.222 l -0.813,-0.423 c -1.633,-0.838 -3.302,-1.633 -5.006,-2.38 -0.568,-0.249 -1.14,-0.493 -1.716,-0.732 -4.03,-1.671 -8.245,-3.081 -12.619,-4.196 -0.62,-0.158 -1.24,-0.309 -1.858,-0.453 l -0.373,-0.083 -1.467,-0.326 -0.648,-0.131 -1.191,-0.239 -0.691,-0.125 -1.152,-0.206 -0.719,-0.116 -1.106,-0.175 -0.761,-0.107 -1.072,-0.147 -0.744,-0.089 -1.072,-0.124 -0.787,-0.078 -1.015,-0.097 -0.817,-0.064 -0.99,-0.073 -0.824,-0.048 -0.953,-0.05 -0.876,-0.034 -0.901,-0.028 -0.911,-0.016 -0.844,-0.01 h -0.92 l -0.86,0.01 -0.907,0.022 -0.827,0.026 -0.932,0.041 -0.812,0.043 -0.924,0.06 -0.8,0.06 -0.922,0.079 -0.787,0.076 -0.933,0.1 -0.764,0.09 -0.946,0.122 -0.715,0.1 -0.968,0.145 -0.708,0.116 -0.959,0.164 -0.667,0.123 -1.009,0.196 -0.605,0.126 -1.02,0.221 -0.583,0.135 -1.058,0.254 -0.5,0.127 -1.093,0.287 -0.466,0.13 -1.129,0.322 -0.391,0.119 -1.156,0.359 -0.36,0.118 -1.212,0.406 -0.164,0.059 -1.362,0.49 -0.032,0.012 -1.049,0.403 -0.321,0.127 c -0.712,0.283 -1.417,0.577 -2.114,0.881 l -0.22,0.097 c -0.722,0.318 -1.434,0.648 -2.138,0.989 l -0.141,0.068 c -0.716,0.349 -1.424,0.709 -2.121,1.082 l -0.142,0.076 -1.039,0.567 -1.204,0.694 -0.088,0.051 -1.137,0.69 -0.143,0.089 -1.08,0.69 -0.185,0.122 -0.951,0.639 -0.151,0.104 -0.98,0.694 -0.254,0.184 -0.905,0.674 -0.305,0.234 -0.865,0.678 -0.282,0.229 -0.66,0.544 -0.362,0.305 -0.714,0.618 -0.398,0.352 -0.685,0.625 -0.435,0.408 -0.421,0.403 -0.693,0.683 -0.289,0.292 -0.834,0.87 -0.196,0.208 -0.508,0.554 -0.064,0.072 -0.965,1.103 -0.098,0.116 -0.9,1.097 -0.393,0.504 -0.473,0.611 -0.451,0.609 -0.383,0.526 -0.474,0.678 -0.316,0.463 -0.496,0.751 -0.248,0.389 -0.52,0.833 -0.173,0.29 -0.561,0.957 -0.012,0.022 -0.695,1.271 -0.051,0.095 c -1.641,3.116 -2.962,6.427 -3.919,9.916 16.291,-14.887 42.501,-21.069 69.584,-14.162 39.994,10.199 66.714,45.052 59.683,77.846 -0.2,0.935 -0.433,1.854 -0.684,2.764 2.878,-2.628 5.445,-5.527 7.653,-8.673 l 0.036,-0.051 c 0.585,-0.836 1.144,-1.692 1.677,-2.562 l 0.24,-0.391 0.368,-0.625 0.368,-0.643 0.28,-0.504 0.631,-1.19 0.064,-0.124 0.516,-1.046 0.064,-0.137 0.523,-1.136 0.169,-0.381 0.3,-0.706 0.389,-0.965 0.216,-0.572 0.264,-0.721 0.173,-0.483 0.385,-1.161 0.124,-0.401 0.313,-1.048 0.074,-0.258 0.34,-1.287 0.081,-0.332 0.312,-1.353 c 3.131,-14.604 -0.432,-29.615 -8.877,-42.677 z"
   id="path18" />
<path
   style="fill:#f9d355"
   d="m 1597.2807,821.08324 c -3.099,8.824 3.064,19.406 13.768,23.635 10.703,4.23 21.893,0.505 24.993,-8.318 3.101,-8.824 -3.063,-19.406 -13.766,-23.635 -10.704,-4.229 -21.894,-0.505 -24.995,8.318 z"
   id="path19" />
<path
   style="fill:#fab71d"
   d="m 1622.2747,812.76524 -0.968,-0.36 h -0.011 l -0.929,-0.304 -0.065,-0.021 -0.894,-0.253 -0.095,-0.026 -0.892,-0.214 -0.08,-0.018 -0.89,-0.176 -0.088,-0.016 -0.873,-0.135 -0.103,-0.014 -0.847,-0.097 -0.131,-0.012 -0.826,-0.06 -0.134,-0.01 -0.823,-0.025 -0.117,-10e-4 -0.836,0.01 h -0.087 l -0.839,0.046 -0.087,0.01 -0.842,0.083 -0.049,0.01 -0.84,0.119 -0.07,0.012 -0.829,0.155 -0.022,0.01 -0.594,0.135 c -0.885,0.216 -1.74,0.49 -2.557,0.822 -0.614,0.248 -1.207,0.528 -1.777,0.839 l -0.561,0.321 c -0.984,0.589 -1.891,1.274 -2.705,2.049 h -10e-4 l -0.537,0.542 -0.184,0.203 -0.324,0.367 -0.207,0.255 -0.266,0.336 -0.218,0.3 -0.221,0.316 -0.213,0.325 -0.192,0.315 -0.21,0.36 -0.152,0.288 -0.207,0.401 -0.122,0.267 -0.195,0.435 h 0.01 c 5.031,-3.54 12.496,-4.325 19.741,-1.462 10.703,4.23 16.867,14.812 13.768,23.635 l -0.288,0.741 c 1.644,-1.158 3.029,-2.609 4.06,-4.324 l 0.019,-0.032 0.512,-0.938 0.03,-0.063 0.182,-0.39 0.064,-0.146 0.145,-0.341 0.056,-0.137 0.18,-0.481 c 3.101,-8.826 -3.062,-19.408 -13.766,-23.638 z"
   id="path20" />
<path
   style="fill:#f9d355"
   d="m 1737.2047,643.35224 c 6.736,1.971 13.323,-0.915 14.713,-6.446 1.39,-5.531 -2.944,-11.613 -9.679,-13.584 -6.735,-1.971 -13.322,0.915 -14.713,6.446 -1.391,5.531 2.943,11.613 9.679,13.584 z"
   id="path21" />
<path
   style="fill:#fab71d"
   d="m 1739.5677,627.30924 c 6.735,1.971 11.07,8.053 9.68,13.584 l -0.132,0.465 v 0 0 l 0.681,-0.644 0.062,-0.065 0.196,-0.215 0.055,-0.066 0.307,-0.378 0.11,-0.145 0.133,-0.186 0.206,-0.31 0.094,-0.153 0.144,-0.25 0.073,-0.13 0.189,-0.377 0.053,-0.115 0.15,-0.352 0.031,-0.078 0.152,-0.434 0.029,-0.09 0.132,-0.463 c 1.391,-5.531 -2.942,-11.613 -9.679,-13.584 l -0.624,-0.169 -0.204,-0.047 -0.412,-0.093 -0.272,-0.051 -0.348,-0.064 -0.256,-0.037 -0.363,-0.051 -0.258,-0.027 -0.346,-0.034 -0.289,-0.018 -0.316,-0.018 -0.289,-0.01 h -0.31 -0.277 l -0.315,0.01 -0.279,0.017 -0.305,0.022 -0.271,0.029 -0.305,0.035 -0.267,0.039 -0.295,0.048 -0.278,0.053 -0.272,0.056 -0.283,0.067 -0.253,0.065 -0.294,0.084 -0.228,0.069 -0.301,0.1 -0.218,0.077 -0.281,0.108 -0.228,0.093 -0.271,0.119 -0.208,0.098 -0.279,0.138 -0.188,0.1 -0.272,0.152 -0.183,0.11 -0.26,0.162 -0.176,0.118 -0.254,0.178 -0.158,0.118 -0.254,0.198 -0.141,0.118 -0.247,0.214 -0.135,0.125 -0.23,0.224 -0.127,0.133 -0.22,0.239 -0.111,0.13 -0.211,0.257 -0.102,0.135 -0.199,0.273 -0.082,0.122 -0.195,0.303 -0.068,0.117 -0.181,0.318 -0.065,0.131 -0.158,0.325 -0.051,0.117 -0.148,0.359 -0.028,0.081 -0.139,0.401 v 0.01 -0.001 c 2.857,-2.427 7.348,-3.322 11.909,-1.988 z"
   id="path22" />
<path
   style="fill:#f9d355"
   d="m 1548.2787,582.00124 c 9.284,0.474 16.887,-5.265 16.981,-12.819 0.095,-7.554 -7.354,-14.062 -16.638,-14.537 -9.285,-0.474 -16.888,5.265 -16.981,12.819 -0.096,7.555 7.353,14.062 16.638,14.537 z"
   id="path23" />
<path
   style="fill:#f9d355"
   d="m 1598.2957,567.13924 c 3.636,0.186 6.614,-2.062 6.651,-5.021 0.037,-2.958 -2.88,-5.508 -6.516,-5.693 -3.637,-0.186 -6.614,2.062 -6.653,5.02 -0.036,2.959 2.882,5.508 6.518,5.694 z"
   id="path24" />
<path
   style="fill:#fab71d"
   d="m 1546.4027,560.60424 c 9.285,0.474 16.734,6.982 16.638,14.536 l -0.027,0.635 v 0.006 l 0.072,-0.104 0.203,-0.294 0.128,-0.191 0.297,-0.48 0.037,-0.061 0.532,-1.048 0.086,-0.197 0.125,-0.302 0.161,-0.438 0.083,-0.256 0.102,-0.338 0.059,-0.209 0.124,-0.529 0.037,-0.185 0.081,-0.483 0.018,-0.115 0.063,-0.588 0.012,-0.161 0.027,-0.618 c 0.094,-7.554 -7.355,-14.062 -16.639,-14.537 l -0.851,-0.026 -0.277,0.003 -0.573,0.006 -0.275,0.014 -0.55,0.029 -0.351,0.031 -0.467,0.044 -0.368,0.048 -0.433,0.059 -0.401,0.069 -0.385,0.069 -0.381,0.082 -0.402,0.09 -0.356,0.092 -0.395,0.107 -0.382,0.115 -0.351,0.111 -0.383,0.134 -0.341,0.124 -0.361,0.145 -0.338,0.139 -0.355,0.16 -0.327,0.153 -0.346,0.174 -0.306,0.161 -0.342,0.191 -0.298,0.174 -0.32,0.198 -0.29,0.188 -0.316,0.217 -0.266,0.191 -0.308,0.233 -0.252,0.2 -0.297,0.248 -0.238,0.21 -0.278,0.255 -0.225,0.219 -0.274,0.278 -0.198,0.212 -0.264,0.298 -0.182,0.219 -0.246,0.308 -0.169,0.227 -0.23,0.321 -0.155,0.233 -0.212,0.334 -0.132,0.226 -0.203,0.363 -0.109,0.211 -0.191,0.39 -0.088,0.203 -0.173,0.412 -0.073,0.195 -0.155,0.439 -0.05,0.171 -0.136,0.47 -0.04,0.171 -0.11,0.489 -0.024,0.137 -0.085,0.533 -0.01,0.095 -0.06,0.588 c 2.934,-4.014 8.447,-6.545 14.734,-6.223 z"
   id="path25" />
<path
   style="fill:#fab71d"
   d="m 1597.5607,558.75924 c 3.636,0.186 6.553,2.734 6.516,5.693 l -0.011,0.251 v 0 -0.005 l 0.361,-0.576 0.01,-0.015 0.129,-0.27 0.025,-0.055 0.105,-0.27 0.012,-0.031 0.095,-0.316 0.01,-0.029 0.061,-0.282 0.014,-0.079 0.032,-0.244 0.01,-0.089 0.017,-0.324 c 0.037,-2.958 -2.88,-5.507 -6.516,-5.693 l -0.337,-0.011 -0.121,0.002 -0.201,0.002 -0.166,0.008 -0.166,0.009 -0.129,0.012 -0.188,0.018 -0.164,0.021 -0.148,0.02 -0.161,0.028 -0.152,0.028 -0.139,0.03 -0.166,0.037 -0.138,0.036 -0.158,0.042 -0.151,0.046 -0.13,0.041 -0.158,0.056 -0.128,0.046 -0.148,0.06 -0.128,0.052 -0.127,0.057 -0.146,0.068 -0.115,0.058 -0.139,0.073 -0.124,0.07 -0.122,0.071 -0.12,0.075 -0.119,0.076 -0.124,0.086 -0.102,0.073 -0.123,0.094 -0.094,0.074 -0.124,0.104 -0.085,0.074 -0.113,0.104 -0.091,0.089 -0.102,0.103 -0.08,0.088 -0.101,0.113 -0.075,0.088 -0.097,0.122 -0.061,0.082 -0.095,0.133 -0.056,0.084 -0.087,0.137 -0.049,0.085 -0.082,0.143 -0.044,0.088 -0.072,0.146 -0.039,0.089 -0.065,0.154 -0.031,0.085 -0.056,0.161 -0.023,0.075 -0.053,0.185 -0.01,0.043 -0.046,0.206 -0.013,0.08 -0.03,0.184 -0.01,0.056 -0.021,0.213 c 1.148,-1.574 3.308,-2.565 5.77,-2.438 z"
   id="path26" />
<path
   style="fill:#f9d355"
   d="m 1603.3187,1084.7062 c -5.674,0.534 -9.779,4.69 -9.167,9.281 0.61,4.592 5.707,7.881 11.382,7.346 5.674,-0.534 9.779,-4.69 9.168,-9.281 -0.611,-4.592 -5.708,-7.88 -11.383,-7.346 z"
   id="path27" />
<path
   style="fill:#f9d355"
   d="m 1635.4737,1097.5212 c -2.484,0.234 -4.28,2.052 -4.012,4.061 0.267,2.009 2.498,3.449 4.981,3.215 2.484,-0.234 4.28,-2.053 4.013,-4.062 -0.268,-2.009 -2.498,-3.448 -4.982,-3.214 z"
   id="path28" />
<path
   style="fill:#fab71d"
   d="m 1638.6617,995.93424 c -1.792,-7.231 -10.524,-11.584 -19.501,-9.722 -8.977,1.862 -14.8,9.234 -13.008,16.46496 1.792,7.231 10.523,11.584 19.499,9.722 8.979,-1.862 14.802,-9.234 13.01,-16.46496 z"
   id="path29" />
<path
   style="fill:#f9d355"
   d="m 1442.7427,1007.2692 c -4.453,-3.746 -10.417,-3.755 -13.318,-0.022 -2.902,3.733 -1.646,9.796 2.809,13.542 4.453,3.746 10.415,3.755 13.318,0.022 2.902,-3.733 1.643,-9.796 -2.809,-13.542 z"
   id="path30" />
<path
   style="fill:#f9d355"
   d="m 1735.4807,999.44624 c -8.01,3.30396 -12.127,11.17096 -9.192,17.57296 2.933,6.402 11.806,8.913 19.815,5.609 8.012,-3.304 12.127,-11.172 9.194,-17.574 -2.934,-6.40096 -11.806,-8.91196 -19.817,-5.60796 z"
   id="path31" />
<path
   style="fill:#fab71d"
   d="m 1614.7427,1092.4892 -10e-4,-0.046 v 0 c -1.426,2.693 -4.545,4.716 -8.389,5.078 -5.674,0.534 -10.77,-2.755 -11.382,-7.347 l -0.04,-0.391 -0.123,0.242 v 0 l -0.203,0.461 -0.019,0.046 -0.23,0.683 -0.034,0.124 -0.049,0.191 -0.06,0.289 -0.026,0.15 -0.032,0.223 -0.018,0.133 -0.028,0.331 -0.01,0.111 -0.01,0.3 v 0.078 l 0.015,0.363 v 0.091 l 0.04,0.381 c 0.611,4.592 5.707,7.881 11.382,7.346 l 0.521,-0.06 0.128,-0.02 0.388,-0.061 0.119,-0.023 0.378,-0.075 0.169,-0.041 0.324,-0.079 0.165,-0.046 0.31,-0.09 0.2,-0.065 0.263,-0.088 0.218,-0.081 0.237,-0.09 0.201,-0.085 0.244,-0.105 0.196,-0.093 0.229,-0.11 0.203,-0.106 0.207,-0.111 0.21,-0.121 0.19,-0.114 0.203,-0.129 0.181,-0.12 0.192,-0.134 0.177,-0.128 0.195,-0.15 0.15,-0.119 0.2,-0.168 0.139,-0.123 0.18,-0.166 0.142,-0.135 0.175,-0.177 0.122,-0.131 0.171,-0.189 0.113,-0.134 0.157,-0.193 0.113,-0.147 0.139,-0.19 0.105,-0.153 0.133,-0.201 0.09,-0.147 0.125,-0.214 0.075,-0.14 0.12,-0.23 0.064,-0.135 0.109,-0.243 0.049,-0.123 0.1,-0.262 0.04,-0.117 0.089,-0.277 0.028,-0.1 0.076,-0.296 0.021,-0.097 0.058,-0.301 0.015,-0.097 0.042,-0.313 0.01,-0.076 0.026,-0.331 10e-4,-0.071 v -0.336 -0.114 z"
   id="path32" />
<path
   style="fill:#fab71d"
   d="m 1640.4727,1100.9072 c -0.625,1.179 -1.99,2.064 -3.671,2.222 -2.484,0.234 -4.713,-1.205 -4.982,-3.214 l -0.017,-0.171 v -0 0.01 l -0.185,0.418 -0.01,0.025 -0.057,0.185 -0.012,0.042 -0.042,0.185 -0.01,0.032 -0.033,0.214 v 0.049 l -0.012,0.171 v 0.069 0.15 0.073 l 0.019,0.218 c 0.267,2.009 2.498,3.449 4.982,3.215 l 0.442,-0.06 v 0 l 0.407,-0.089 0.028,-0.01 0.383,-0.116 0.026,-0.01 0.353,-0.14 0.042,-0.018 0.323,-0.161 0.042,-0.023 0.305,-0.185 0.032,-0.022 0.282,-0.207 0.034,-0.027 0.253,-0.222 0.035,-0.035 0.226,-0.241 0.027,-0.032 0.2,-0.26 0.022,-0.031 0.17,-0.275 0.021,-0.038 0.139,-0.288 0.012,-0.03 0.108,-0.305 0.01,-0.031 0.072,-0.316 v -0.028 l 0.034,-0.33 v -0.017 l -0.01,-0.345 z"
   id="path33" />
<path
   style="fill:#f9d355"
   d="m 1504.5257,723.14724 c -6.736,-1.971 -13.323,0.915 -14.713,6.446 -1.391,5.531 2.944,11.613 9.679,13.584 6.735,1.971 13.323,-0.915 14.713,-6.446 1.389,-5.532 -2.944,-11.613 -9.679,-13.584 z"
   id="path34" />
<path
   style="fill:#fab71d"
   d="m 1510.4627,726.42924 c -1.609,-1.451 -3.633,-2.607 -5.939,-3.281 l -0.624,-0.168 -0.204,-0.047 -0.411,-0.093 -0.243,-0.046 -0.384,-0.07 -0.207,-0.03 -0.404,-0.057 -0.264,-0.027 -0.34,-0.033 -0.289,-0.018 -0.316,-0.017 -0.289,-0.01 h -0.311 -0.264 l -0.336,0.01 -0.251,0.015 -0.324,0.023 -0.273,0.029 -0.302,0.035 -0.268,0.039 -0.293,0.047 -0.278,0.053 -0.272,0.057 -0.279,0.066 -0.26,0.066 -0.283,0.081 -0.245,0.074 -0.276,0.092 -0.241,0.085 -0.267,0.103 -0.237,0.097 -0.257,0.113 -0.23,0.108 -0.257,0.128 -0.203,0.107 -0.262,0.147 -0.199,0.118 -0.245,0.154 -0.19,0.127 -0.24,0.168 -0.177,0.132 -0.233,0.182 -0.163,0.136 -0.229,0.2 -0.14,0.131 -0.233,0.226 -0.116,0.121 -0.229,0.247 -0.108,0.127 -0.219,0.265 -0.083,0.11 -0.216,0.297 -0.071,0.107 -0.203,0.314 -0.06,0.103 -0.193,0.343 -0.034,0.068 -0.187,0.382 -0.038,0.089 -0.16,0.383 -0.022,0.062 -0.147,0.426 c 2.857,-2.432 7.348,-3.327 11.909,-1.992 6.735,1.971 11.069,8.052 9.679,13.584 l -0.132,0.462 v 0 l 0.064,-0.057 0.229,-0.205 0.093,-0.087 0.312,-0.31 0.043,-0.045 0.209,-0.229 0.011,-0.013 0.351,-0.43 0.101,-0.133 0.143,-0.197 0.202,-0.305 0.095,-0.156 0.139,-0.24 0.079,-0.141 0.187,-0.374 0.053,-0.116 0.149,-0.352 0.031,-0.078 0.15,-0.425 0.035,-0.109 0.128,-0.452 0.03,-0.137 c 0.843,-3.6 -0.715,-7.414 -3.77,-10.167 z"
   id="path35" />
<path
   style="fill:#f9d355"
   d="m 1809.2567,854.23424 c -9.836,7.74 -10.472,24.118 -1.42,36.58 9.052,12.462 24.365,16.291 34.201,8.55 9.838,-7.74 10.474,-24.118 1.422,-36.58 -9.053,-12.462 -24.365,-16.29 -34.203,-8.55 z"
   id="path36" />
<path
   style="fill:#f9d355"
   d="m 1832.5027,829.22724 c 6.38,-0.328 11.47,-6.965 11.368,-14.823 -0.102,-7.858 -5.357,-13.962 -11.738,-13.634 -6.38,0.328 -11.47,6.965 -11.368,14.823 0.103,7.858 5.358,13.962 11.738,13.634 z"
   id="path37" />
<path
   style="fill:#fab71d"
   d="m 1817.8267,887.47424 c -9.052,-12.463 -8.416,-28.841 1.422,-36.58 l 0.855,-0.631 c -2.694,0.128 -5.304,0.775 -7.705,1.977 l -0.015,0.01 -1.274,0.704 -0.034,0.021 -0.531,0.337 -0.161,0.108 -0.419,0.29 -0.155,0.111 -0.55,0.416 c -9.838,7.74 -10.474,24.118 -1.421,36.58 l 0.429,0.577 0.018,0.025 0.413,0.532 0.098,0.121 0.347,0.431 0.089,0.105 0.359,0.427 0.126,0.144 0.328,0.373 0.19,0.208 0.261,0.286 0.211,0.222 0.278,0.291 0.162,0.164 0.313,0.315 0.192,0.186 0.289,0.278 0.214,0.201 0.272,0.25 0.234,0.211 0.264,0.234 0.229,0.197 0.28,0.236 0.224,0.186 0.286,0.233 0.228,0.179 0.287,0.224 0.249,0.189 0.254,0.19 0.267,0.194 0.274,0.195 0.241,0.167 0.295,0.201 0.249,0.165 0.258,0.167 0.304,0.192 0.225,0.139 0.315,0.191 0.219,0.128 0.331,0.19 0.221,0.124 0.32,0.175 0.228,0.12 0.323,0.168 0.232,0.117 0.332,0.163 0.208,0.099 0.34,0.158 0.227,0.101 0.339,0.149 0.2,0.084 0.373,0.154 0.137,0.054 0.442,0.171 0.07,0.026 0.488,0.176 0.087,0.03 0.479,0.161 0.056,0.017 0.606,0.187 0.349,0.098 0.254,0.071 0.358,0.091 0.258,0.065 0.361,0.083 0.248,0.056 0.372,0.075 0.235,0.046 0.392,0.069 0.216,0.036 0.383,0.057 0.227,0.032 0.407,0.05 0.186,0.021 0.444,0.042 0.139,0.012 0.475,0.032 0.121,0.01 0.485,0.02 h 0.11 l 0.485,0.01 0.114,-10e-4 0.499,-0.01 h 0.063 l 0.539,-0.022 0.019,-0.001 0.688,-0.051 0.261,-0.027 0.415,-0.045 0.334,-0.046 0.335,-0.049 0.371,-0.064 0.292,-0.054 0.388,-0.08 0.266,-0.059 0.414,-0.101 0.228,-0.059 0.423,-0.118 0.215,-0.065 0.449,-0.142 0.139,-0.048 0.504,-0.179 0.049,-0.019 c 0.999,-0.377 1.967,-0.842 2.899,-1.397 l 0.017,-0.01 0.539,-0.335 0.03,-0.019 0.521,-0.35 0.025,-0.016 h -10e-4 c -8.232,0.385 -17.231,-4.088 -23.362,-12.527 z"
   id="path38" />
<path
   style="fill:#fab71d"
   d="m 1838.7237,812.85424 c 0.103,7.858 -4.988,14.494 -11.368,14.823 l -0.538,0.011 v 0 l 0.087,0.052 0.296,0.178 0.117,0.068 0.441,0.235 0.056,0.028 0.315,0.149 h 0.01 l 0.592,0.242 0.168,0.061 0.261,0.089 0.373,0.111 0.23,0.059 0.279,0.065 0.191,0.041 0.451,0.075 0.155,0.021 0.405,0.042 0.112,0.01 0.503,0.021 0.122,10e-4 0.53,-0.01 c 6.381,-0.329 11.47,-6.965 11.37,-14.823 l -0.025,-0.719 -0.022,-0.294 -0.03,-0.416 -0.036,-0.304 -0.046,-0.398 -0.046,-0.297 -0.062,-0.388 -0.063,-0.318 -0.072,-0.353 -0.08,-0.339 -0.078,-0.314 -0.095,-0.335 -0.091,-0.315 -0.101,-0.307 -0.109,-0.321 -0.113,-0.302 -0.121,-0.31 -0.124,-0.294 -0.131,-0.297 -0.14,-0.295 -0.138,-0.279 -0.161,-0.303 -0.133,-0.243 -0.177,-0.304 -0.146,-0.238 -0.186,-0.289 -0.15,-0.222 -0.204,-0.286 -0.155,-0.209 -0.218,-0.277 -0.155,-0.19 -0.234,-0.273 -0.162,-0.178 -0.242,-0.255 -0.169,-0.168 -0.256,-0.244 -0.173,-0.157 -0.264,-0.229 -0.177,-0.144 -0.283,-0.221 -0.171,-0.125 -0.298,-0.208 -0.178,-0.117 -0.3,-0.186 -0.191,-0.109 -0.31,-0.171 -0.18,-0.09 -0.332,-0.159 -0.177,-0.076 -0.34,-0.142 -0.18,-0.065 -0.363,-0.125 -0.142,-0.042 -0.406,-0.115 -0.115,-0.027 -0.437,-0.096 -0.108,-0.018 -0.451,-0.071 -0.103,-0.011 -0.47,-0.046 h -0.044 l -0.531,-0.019 c 3.542,2.26 5.975,6.773 6.045,12.094 z"
   id="path39" />
<path
   style="fill:#f9d355"
   d="m 1694.0507,907.51924 c -4.66,2.95 -6.378,8.335 -3.835,12.027 2.541,3.692 8.378,4.293 13.038,1.342 4.66,-2.951 6.377,-8.335 3.836,-12.027 -2.541,-3.691 -8.379,-4.292 -13.039,-1.342 z"
   id="path40" />
<path
   style="fill:#fab71d"
   d="m 1708.2457,912.19924 -0.011,-0.133 -0.027,-0.257 -0.02,-0.14 -0.042,-0.259 -0.023,-0.108 -0.061,-0.281 -0.029,-0.103 -0.076,-0.274 -0.035,-0.105 -0.098,-0.277 -0.022,-0.056 -0.132,-0.316 -0.01,-0.013 -0.167,-0.345 -0.01,-0.012 -0.192,-0.338 c -0.049,2.949 -1.852,6.063 -5.008,8.061 -4.66,2.951 -10.498,2.35 -13.04,-1.342 l -0.204,-0.318 -10e-4,-0.001 v 0.026 l 0.01,0.476 v 0.05 l 0.045,0.486 v 0.022 l 0.079,0.465 0.012,0.062 0.113,0.455 0.01,0.029 0.16,0.48 0.016,0.04 0.169,0.397 0.059,0.124 0.162,0.31 0.076,0.135 0.257,0.41 c 2.541,3.692 8.381,4.293 13.041,1.342 l 0.417,-0.276 0.18,-0.129 0.234,-0.169 0.143,-0.112 0.239,-0.189 0.188,-0.161 0.181,-0.155 0.178,-0.165 0.176,-0.164 0.181,-0.182 0.149,-0.151 0.17,-0.186 0.151,-0.167 0.157,-0.185 0.138,-0.165 0.161,-0.208 0.117,-0.155 0.155,-0.216 0.105,-0.153 0.146,-0.224 0.095,-0.151 0.139,-0.236 0.083,-0.145 0.127,-0.238 0.079,-0.155 0.103,-0.219 0.085,-0.185 0.09,-0.212 0.071,-0.179 0.083,-0.225 0.061,-0.175 0.072,-0.229 0.049,-0.17 0.062,-0.234 0.04,-0.167 0.052,-0.241 0.03,-0.16 0.04,-0.244 0.022,-0.158 0.027,-0.249 0.012,-0.151 0.015,-0.252 v -0.15 -0.254 l -0.01,-0.139 z"
   id="path41" />
<path
   style="fill:#e8901b"
   d="m 1638.9607,997.88324 -0.01,-0.105 -0.054,-0.562 -0.01,-0.046 -0.097,-0.617 c -1.802,4.55896 -6.43,8.34796 -12.51,9.60896 -8.976,1.862 -17.707,-2.491 -19.5,-9.72196 l -0.131,-0.613 h -10e-4 l -0.045,0.121 -0.115,0.319 -0.075,0.215 -0.163,0.533 -0.022,0.078 -0.1,0.393 v 0.019 l -0.143,0.721 -0.031,0.201 -0.045,0.322 -0.045,0.458 -0.015,0.273 -0.012,0.327 v 0.23496 l 0.012,0.525 0.012,0.191 0.042,0.491 0.011,0.099 0.087,0.583 0.028,0.154 0.128,0.596 c 1.793,7.231 10.524,11.584 19.501,9.722 l 0.828,-0.19 0.087,-0.023 0.712,-0.194 0.304,-0.096 0.467,-0.148 0.373,-0.134 0.393,-0.143 0.335,-0.136 0.408,-0.168 0.316,-0.143 0.404,-0.187 0.315,-0.16 0.38,-0.195 0.316,-0.176 0.354,-0.201 0.323,-0.198 0.323,-0.204 0.321,-0.216 0.298,-0.206 0.317,-0.234 0.279,-0.211 0.313,-0.253 0.253,-0.21 0.299,-0.264 0.251,-0.228 0.278,-0.268 0.23,-0.229 0.278,-0.293 0.21,-0.23 0.262,-0.301 0.192,-0.231 0.252,-0.321 0.17,-0.227 0.246,-0.346 0.146,-0.215 0.224,-0.347 0.149,-0.247 0.198,-0.344 0.127,-0.237 0.191,-0.375 0.102,-0.217 0.174,-0.391 0.091,-0.226 0.154,-0.401 0.073,-0.211 0.135,-0.419 0.058,-0.208 0.113,-0.432 0.045,-0.203 0.09,-0.443 0.03,-0.191 0.067,-0.46396 0.016,-0.164 0.041,-0.498 0.01,-0.127 0.014,-0.532 -0.01,-0.114 z"
   id="path42" />
<path
   style="fill:#f9d355"
   d="m 1396.2207,708.69224 c 4.626,0.272 8.837,-3.956 9.402,-9.445 0.566,-5.488 -2.727,-10.158 -7.354,-10.431 -4.626,-0.273 -8.837,3.955 -9.402,9.443 -0.567,5.489 2.726,10.16 7.354,10.433 z"
   id="path43" />
<path
   style="fill:#fab71d"
   d="m 1392.4517,699.74624 c 0.566,-5.489 4.776,-9.716 9.403,-9.444 l 0.39,0.035 -0.886,-0.597 h -0.01 l -0.434,-0.229 -0.066,-0.032 -0.437,-0.189 -0.028,-0.012 -0.495,-0.17 -0.038,-0.011 -0.43,-0.112 -0.149,-0.031 -0.349,-0.063 -0.161,-0.024 -0.497,-0.049 c -4.628,-0.273 -8.838,3.955 -9.403,9.443 l -0.041,0.502 -0.01,0.247 -0.01,0.253 v 0.225 l 10e-4,0.273 0.01,0.209 0.012,0.279 0.019,0.211 0.023,0.267 0.027,0.208 0.035,0.271 0.034,0.194 0.047,0.266 0.047,0.215 0.053,0.236 0.057,0.219 0.06,0.225 0.069,0.222 0.067,0.211 0.076,0.215 0.079,0.213 0.08,0.198 0.093,0.216 0.089,0.196 0.096,0.2 0.104,0.2 0.098,0.182 0.117,0.204 0.099,0.166 0.13,0.204 0.104,0.156 0.134,0.19 0.117,0.157 0.143,0.183 0.115,0.14 0.16,0.184 0.114,0.127 0.173,0.18 0.114,0.113 0.185,0.175 0.116,0.103 0.196,0.167 0.12,0.096 0.201,0.154 0.125,0.089 0.215,0.147 0.113,0.072 0.234,0.142 0.117,0.064 0.24,0.128 0.121,0.059 0.248,0.114 0.11,0.046 0.277,0.109 0.079,0.027 0.305,0.101 0.089,0.025 0.309,0.082 0.071,0.015 0.341,0.07 h 0.013 l 0.398,0.057 c -2.368,-1.857 -3.755,-5.197 -3.372,-8.913 z"
   id="path44" />
<path
   style="fill:#f9d355"
   d="m 1302.6377,830.14024 c -6.38,0.328 -11.47,6.968 -11.368,14.829 0.102,7.861 5.357,13.968 11.737,13.639 6.382,-0.329 11.47,-6.968 11.368,-14.829 -0.1,-7.861 -5.355,-13.967 -11.737,-13.639 z"
   id="path45" />
<path
   style="fill:#fab71d"
   d="m 1314.3347,842.82724 -0.037,-0.485 -0.026,-0.228 -0.055,-0.466 -0.046,-0.296 -0.061,-0.389 -0.064,-0.323 -0.07,-0.346 -0.077,-0.318 -0.085,-0.346 -0.089,-0.312 -0.095,-0.328 -0.105,-0.321 -0.104,-0.306 -0.118,-0.314 -0.115,-0.299 -0.128,-0.301 -0.128,-0.295 -0.139,-0.291 -0.138,-0.282 -0.158,-0.297 -0.142,-0.259 -0.169,-0.289 -0.149,-0.245 -0.183,-0.282 -0.159,-0.238 -0.19,-0.265 -0.171,-0.232 -0.198,-0.251 -0.177,-0.216 -0.22,-0.255 -0.172,-0.19 -0.233,-0.245 -0.181,-0.181 -0.245,-0.234 -0.181,-0.165 -0.256,-0.221 -0.189,-0.154 -0.271,-0.212 -0.179,-0.13 -0.294,-0.205 -0.175,-0.113 -0.315,-0.196 -0.161,-0.093 -0.338,-0.186 -0.161,-0.08 -0.346,-0.166 -0.165,-0.071 -0.358,-0.148 -0.158,-0.057 -0.376,-0.13 -0.153,-0.046 -0.39,-0.11 -0.134,-0.031 -0.426,-0.094 -0.093,-0.016 -0.464,-0.074 -0.094,-0.01 -0.479,-0.046 h -0.028 l -0.546,-0.019 c 3.543,2.26 5.978,6.776 6.047,12.1 0.102,7.862 -4.988,14.501 -11.368,14.829 l -0.542,0.011 h 0.01 l 0.306,0.189 0.029,0.016 0.586,0.317 0.073,0.037 0.304,0.144 0.075,0.032 0.518,0.21 0.189,0.069 0.249,0.085 0.389,0.115 0.203,0.052 0.302,0.07 0.181,0.039 0.455,0.076 0.151,0.019 0.425,0.045 0.086,0.01 0.501,0.021 0.142,10e-4 0.519,-0.011 c 6.382,-0.329 11.47,-6.967 11.37,-14.829 l -0.024,-0.719 z"
   id="path46" />
<path
   style="fill:#f9d355"
   d="m 1412.3217,957.04024 c -9.821,-8.26 -22.972,-8.282 -29.372,-0.049 -6.401,8.233 -3.627,21.604 6.195,29.865 9.821,8.26 22.97,8.282 29.371,0.049 6.401,-8.234 3.628,-21.605 -6.194,-29.865 z"
   id="path47" />
<path
   style="fill:#fab71d"
   d="m 1396.5507,982.15024 c -9.821,-8.26 -12.594,-21.631 -6.193,-29.865 l 0.565,-0.682 c -2.144,0.641 -4.117,1.683 -5.812,3.127 l -0.05,0.043 -0.41,0.365 -0.031,0.027 -0.425,0.411 -0.044,0.046 -0.349,0.365 -0.104,0.114 -0.278,0.316 -0.112,0.13 -0.358,0.443 c -6.401,8.233 -3.628,21.604 6.193,29.865 l 0.892,0.721 0.016,0.012 0.877,0.652 0.055,0.04 0.871,0.595 0.073,0.049 0.851,0.531 0.116,0.071 0.848,0.483 0.111,0.061 0.87,0.45 0.1,0.049 0.877,0.409 0.109,0.048 0.866,0.361 0.13,0.051 0.862,0.318 0.132,0.046 0.879,0.282 0.102,0.03 0.894,0.246 0.106,0.027 0.896,0.205 0.095,0.02 0.912,0.168 0.061,0.01 0.937,0.129 h 0.038 l 0.56,0.057 0.293,0.022 0.272,0.02 0.314,0.016 0.242,0.011 0.304,0.01 0.267,0.01 h 0.285 0.264 l 0.309,-0.01 0.24,-0.01 0.32,-0.018 0.218,-0.014 0.354,-0.03 0.18,-0.017 0.366,-0.041 0.162,-0.02 0.384,-0.054 0.139,-0.022 0.39,-0.065 0.137,-0.025 0.395,-0.079 0.11,-0.024 0.41,-0.094 0.099,-0.025 0.414,-0.107 0.083,-0.024 0.423,-0.123 0.068,-0.021 c 2.288,-0.712 4.377,-1.886 6.132,-3.524 l 0.01,-0.01 0.361,-0.348 0.019,-0.019 0.701,-0.75 0.01,-0.01 c -6.571,1.97 -14.746,0.159 -21.397,-5.434 z"
   id="path48" />
<path
   style="fill:#fab71d"
   d="m 1435.5907,1018.6552 c -4.453,-3.745 -5.71,-9.809 -2.808,-13.542 l 0.255,-0.307 h 10e-4 l -0.029,0.01 -0.47,0.158 -0.06,0.023 -0.469,0.197 -0.019,0.01 -0.442,0.227 -0.06,0.034 -0.419,0.257 -0.029,0.018 -0.429,0.311 -0.045,0.037 -0.334,0.287 -0.113,0.105 -0.263,0.265 -0.101,0.107 -0.335,0.396 c -2.902,3.733 -1.643,9.796 2.81,13.542 l 0.421,0.339 0.04,0.03 0.38,0.282 0.154,0.105 0.278,0.189 0.166,0.104 0.272,0.169 0.16,0.09 0.286,0.162 0.164,0.085 0.281,0.142 0.204,0.095 0.238,0.109 0.233,0.097 0.22,0.09 0.233,0.086 0.219,0.078 0.248,0.08 0.208,0.064 0.237,0.065 0.228,0.06 0.228,0.052 0.226,0.048 0.234,0.043 0.223,0.037 0.233,0.032 0.219,0.026 0.233,0.022 0.219,0.016 0.232,0.011 0.219,0.01 h 0.23 l 0.2,-0.01 0.255,-0.012 0.181,-0.013 0.247,-0.023 0.194,-0.024 0.234,-0.035 0.192,-0.033 0.234,-0.047 0.174,-0.04 0.247,-0.063 0.158,-0.046 0.248,-0.076 0.151,-0.053 0.246,-0.091 0.144,-0.06 0.24,-0.104 0.139,-0.068 0.241,-0.122 0.117,-0.066 0.244,-0.141 0.117,-0.075 0.233,-0.154 0.105,-0.077 0.231,-0.173 0.094,-0.077 0.23,-0.196 0.071,-0.066 0.238,-0.227 0.043,-0.046 0.249,-0.268 v 0 c -2.981,0.893 -6.688,0.073 -9.704,-2.464 z"
   id="path49" />
<path
   style="fill:#fab71d"
   d="m 1756.2167,1008.6592 -0.013,-0.151 -0.049,-0.471 -0.019,-0.124 -0.08,-0.493 -0.02,-0.095 -0.117,-0.518 -0.014,-0.052 -0.161,-0.553 -0.01,-0.02 -0.206,-0.576 c -0.872,4.551 -4.507,8.881 -9.932,11.119 -8.01,3.304 -16.882,0.793 -19.816,-5.608 l -0.233,-0.551 v 0 0.011 l -0.068,0.393 v 0.012 l -0.091,0.764 v 0.068 l -0.03,1.105 0.01,0.177 0.016,0.325 0.037,0.417 0.035,0.273 0.044,0.287 0.039,0.232 0.101,0.474 0.049,0.194 0.118,0.419 0.034,0.116 0.184,0.526 0.047,0.125 0.228,0.539 c 2.933,6.402 11.806,8.913 19.817,5.609 l 0.736,-0.321 0.108,-0.052 0.593,-0.289 0.259,-0.138 0.425,-0.229 0.284,-0.168 0.372,-0.22 0.288,-0.186 0.347,-0.227 0.283,-0.199 0.327,-0.233 0.262,-0.201 0.326,-0.254 0.256,-0.214 0.298,-0.253 0.249,-0.226 0.287,-0.267 0.233,-0.23 0.267,-0.271 0.23,-0.247 0.247,-0.273 0.223,-0.262 0.223,-0.27 0.209,-0.268 0.214,-0.282 0.196,-0.276 0.189,-0.277 0.193,-0.3 0.163,-0.264 0.18,-0.309 0.153,-0.274 0.162,-0.312 0.136,-0.274 0.15,-0.327 0.113,-0.26 0.141,-0.348 0.093,-0.245 0.128,-0.372 0.074,-0.229 0.112,-0.384 0.057,-0.225 0.094,-0.396 0.044,-0.212 0.073,-0.408 0.03,-0.209 0.052,-0.416 0.018,-0.196 0.03,-0.428 0.01,-0.182 0.01,-0.445 -0.01,-0.162 z"
   id="path50" />
</svg>
